<?xml version="1.0" encoding="UTF-8"?><svg id="a" xmlns="http://www.w3.org/2000/svg" viewBox="0 0 300 65"><defs><style>.b{fill:#63409a;}.c,.d{fill:#fff;}.d{fill-rule:evenodd;}</style></defs><rect class="b" width="300" height="65"/><g><g><path class="c" d="M87.46,30.84l-1.71-3.01h-17.57l1.71,3.01h9.64v1.64c-.68-.14-1.41-.16-2.17-.07-.76,.09-1.5,.29-2.2,.58-.71,.3-1.35,.68-1.93,1.16-.58,.48-1.04,1.03-1.38,1.64-.39,.73-.62,1.52-.7,2.36-.08,.84-.01,1.67,.21,2.48,.22,.81,.59,1.58,1.13,2.31,.54,.73,1.22,1.36,2.07,1.88,.87,.52,1.78,.86,2.73,1.01,.96,.15,1.89,.15,2.8,0,.91-.15,1.77-.43,2.58-.84,.81-.41,1.51-.92,2.1-1.54l-1.98-1.81c-.36,.57-.81,1.06-1.33,1.47-.52,.41-1.09,.7-1.71,.87-.62,.17-1.27,.2-1.97,.09-.7-.11-1.41-.41-2.14-.89-1.09-.68-1.76-1.5-1.98-2.46-.23-.96-.13-1.87,.29-2.73,.42-.87,1.11-1.58,2.07-2.15,.96-.57,2.07-.81,3.35-.72,.48,.02,.87,.12,1.16,.29,.3,.17,.51,.39,.63,.65,.12,.26,.14,.54,.05,.84-.09,.3-.3,.58-.62,.85-.52,.41-.98,.73-1.37,.96-.39,.23-.8,.43-1.25,.6-.44,.17-.95,.34-1.5,.5-.56,.16-1.25,.38-2.07,.65,.05,.62,.38,.98,.99,1.09,.62,.11,1.32,.09,2.12-.07,.8-.16,1.59-.39,2.38-.7,.79-.31,1.38-.58,1.79-.8,.57-.32,1.08-.73,1.54-1.23,.46-.5,.75-1.05,.89-1.64,.14-.59,.08-1.21-.17-1.86-.25-.65-.8-1.3-1.64-1.97v-2.43h5.16Z"/><polygon class="c" points="89.78 38.32 99.08 38.32 100.79 35.32 91.49 35.32 89.78 38.32"/><polygon class="c" points="149.43 22.87 147.24 20.72 145.09 22.87 147.24 25.06 149.43 22.87"/><path class="c" d="M104.76,27.83l1.71,3.01h9.5v1.57c-.96-.39-1.81-.5-2.55-.32-.74,.17-1.31,.51-1.71,1.01-.4,.5-.57,1.11-.51,1.83,.06,.72,.42,1.44,1.08,2.17,.46,.5,.93,.91,1.44,1.23,.5,.32,.99,.59,1.47,.82,.48,.23,.93,.43,1.35,.6,.42,.17,.78,.34,1.08,.5,.75,.46,1.22,.88,1.42,1.26,.19,.39,.19,.75,0,1.08-.19,.33-.54,.61-1.03,.84-.49,.23-1.05,.39-1.69,.48-.41-.41-.76-.9-1.04-1.47-.29-.57-.58-1.14-.87-1.71-.3-.57-.63-1.1-1.01-1.59-.38-.49-.86-.86-1.45-1.11-.36-.14-.77-.24-1.23-.31-.46-.07-.9-.07-1.33,0-.43,.07-.83,.22-1.2,.44-.36,.23-.63,.55-.79,.96-.43,1.03-.5,1.96-.19,2.8,.31,.84,.85,1.57,1.64,2.19,.79,.62,1.74,1.11,2.85,1.47,1.12,.36,2.26,.58,3.42,.65,.43,.59,.92,1.12,1.47,1.59,.55,.47,1.15,.86,1.81,1.18l1.81-1.98c-.46-.21-.81-.38-1.06-.51-.25-.14-.51-.31-.79-.51,1.03-.25,1.91-.65,2.67-1.2,.75-.55,1.25-1.3,1.5-2.26,.11-.46,.07-.85-.12-1.2-.19-.34-.49-.65-.89-.94-.4-.28-.87-.55-1.4-.79-.54-.24-1.08-.48-1.64-.72-.56-.24-1.1-.47-1.62-.7-.52-.23-.97-.49-1.33-.79-.46-.34-.84-.77-1.16-1.28-.32-.51-.42-.96-.29-1.35,.13-.39,.54-.63,1.25-.74,.71-.1,1.85,.1,3.42,.6v-3.79h7.67v12.03l3.08,2.97v-7.59l2.56-1.91c.66-.5,1.24-.87,1.73-1.11,.49-.24,.93-.39,1.32-.44,.39-.06,.74-.04,1.04,.05,.31,.09,.62,.23,.94,.41,.46,.25,.77,.62,.94,1.11,.17,.49,.23,1.05,.19,1.69-.05,.64-.2,1.33-.46,2.09-.26,.75-.6,1.53-1.01,2.32-.43,.82-.61,1.46-.53,1.91,.08,.46,.24,.8,.5,1.03,.3,.25,.71,.4,1.23,.44,.73-1.44,1.34-2.62,1.85-3.56,.5-.93,.89-1.74,1.16-2.43,.27-.68,.44-1.32,.5-1.9,.06-.58,0-1.25-.15-2-.14-.59-.38-1.13-.73-1.62-.35-.49-.77-.92-1.25-1.28-.48-.36-1-.64-1.56-.84-.56-.19-1.11-.29-1.66-.29-.71,0-1.42,.15-2.15,.46-.73,.31-1.4,.66-2.02,1.06-.62,.4-1.15,.78-1.59,1.15-.44,.36-.72,.59-.84,.68v-4.44h16.15v12.03l3.08,2.97v-15.01h5.09v12.03l3.08,2.97v-5.09l8.03,7.38,2.05-2.29-8.82-7.97c.68-.46,1.36-.87,2.03-1.25,.67-.38,1.21-.62,1.62-.74,.21-.05,.43,0,.67,.14,.24,.14,.47,.32,.7,.55,.23,.23,.44,.48,.65,.77,.21,.29,.38,.54,.51,.77l2.26-2.43c-.18-.32-.39-.67-.63-1.06-.24-.39-.5-.76-.79-1.13-.29-.36-.57-.69-.85-.97-.29-.28-.56-.48-.84-.6-.21-.09-.46-.07-.75,.05-.3,.13-.6,.29-.91,.5-.31,.21-.6,.43-.87,.68-.27,.25-.5,.46-.68,.62-.39,.32-.9,.76-1.54,1.32-.64,.56-1.25,1.1-1.85,1.62v-5.88h21.94v1.57c-.96-.39-1.81-.5-2.55-.32-.74,.17-1.31,.51-1.71,1.01-.4,.5-.57,1.11-.51,1.83,.06,.72,.42,1.44,1.08,2.17,.46,.5,.93,.91,1.44,1.23,.5,.32,.99,.59,1.47,.82,.48,.23,.93,.43,1.35,.6,.42,.17,.78,.34,1.08,.5,.84,.5,1.34,.97,1.5,1.4,.16,.43,.09,.82-.22,1.16-.31,.34-.79,.62-1.44,.82-.65,.21-1.36,.33-2.12,.38-.76,.05-1.52,0-2.26-.15-.74-.15-1.35-.4-1.83-.77-.48-.36-.78-.79-.91-1.26-.13-.48-.1-.91,.09-1.3,.18-.39,.52-.69,1.03-.91,.5-.22,1.13-.24,1.88-.09-.34-.36-.8-.68-1.38-.96-.58-.27-1.18-.45-1.79-.53-.62-.08-1.18-.04-1.69,.12-.51,.16-.87,.48-1.08,.96-.36,.89-.46,1.7-.27,2.44,.18,.74,.56,1.41,1.13,2,.57,.59,1.29,1.09,2.15,1.5,.87,.41,1.79,.72,2.77,.92,.98,.21,1.98,.3,2.99,.27,1.01-.02,1.95-.17,2.82-.44,.87-.27,1.62-.68,2.26-1.21,.64-.54,1.07-1.22,1.3-2.07,.11-.46,.07-.85-.12-1.2-.19-.34-.49-.65-.89-.94-.4-.28-.87-.55-1.4-.79-.54-.24-1.08-.48-1.64-.72-.56-.24-1.1-.47-1.62-.7-.52-.23-.97-.49-1.33-.79-.46-.34-.84-.77-1.16-1.28-.32-.51-.42-.96-.29-1.35,.12-.39,.54-.63,1.25-.74,.71-.1,1.85,.1,3.42,.6v-3.79h7.27v12.03l3.08,2.97v-7.59l2.56-1.91c.66-.5,1.24-.87,1.73-1.11,.49-.24,.93-.39,1.32-.44,.39-.06,.74-.04,1.04,.05,.31,.09,.62,.23,.94,.41,.46,.25,.77,.62,.94,1.11,.17,.49,.23,1.05,.19,1.69-.05,.64-.2,1.33-.46,2.09-.26,.75-.6,1.53-1.01,2.32-.43,.82-.61,1.46-.53,1.91,.08,.46,.24,.8,.5,1.03,.3,.25,.71,.4,1.23,.44,.73-1.44,1.34-2.62,1.85-3.56,.5-.93,.89-1.74,1.16-2.43,.27-.68,.44-1.32,.5-1.9,.06-.58,0-1.25-.15-2-.14-.59-.38-1.13-.73-1.62-.35-.49-.77-.92-1.25-1.28-.48-.36-1-.64-1.56-.84-.56-.19-1.11-.29-1.66-.29-.71,0-1.42,.15-2.15,.46-.73,.31-1.4,.66-2.02,1.06-.62,.4-1.15,.78-1.59,1.15-.44,.36-.72,.59-.84,.68v-4.44h23.14v.99s-.1,.03-.15,.03-.11,.01-.15,.03c-.62,.14-1.29,.33-2.03,.58-.74,.25-1.44,.5-2.1,.75-.75,.3-1.52,.6-2.29,.92l.75,1.71c.77-.3,1.39-.54,1.85-.72,.46-.18,.88-.34,1.26-.46,.39-.13,.8-.23,1.23-.32,.43-.09,1.01-.19,1.74-.31,1.03-.18,1.9-.1,2.62,.26,.72,.35,1.08,.86,1.08,1.52v2.67c-1.05-.93-2.11-1.59-3.2-1.97-1.08-.38-2.12-.54-3.11-.48-.99,.06-1.9,.3-2.73,.72-.83,.42-1.5,.96-2.02,1.61-.51,.65-.84,1.37-.99,2.17-.15,.8-.03,1.6,.36,2.39,.34,.75,.82,1.36,1.44,1.81,.62,.46,1.3,.79,2.05,.99,.75,.21,1.54,.3,2.38,.27,.83-.02,1.63-.13,2.41-.32,.77-.19,1.49-.46,2.15-.8,.66-.34,1.2-.72,1.61-1.13l2.73,2.12v-10.08c0-.39-.11-.77-.32-1.16-.22-.39-.51-.75-.89-1.08-.38-.33-.82-.63-1.32-.89-.5-.26-1.03-.47-1.57-.63v-1.2h7.95v12.03l3.08,2.97v-5.09l8.03,7.38,2.05-2.29-8.82-7.97c.68-.46,1.36-.87,2.03-1.25,.67-.38,1.21-.62,1.62-.74,.21-.05,.43,0,.67,.14,.24,.14,.47,.32,.7,.55,.23,.23,.44,.48,.65,.77,.21,.29,.38,.54,.51,.77l2.26-2.43c-.18-.32-.39-.67-.63-1.06-.24-.39-.5-.76-.79-1.13-.29-.36-.57-.69-.85-.97-.29-.28-.56-.48-.84-.6-.21-.09-.46-.07-.75,.05-.3,.13-.6,.29-.91,.5-.31,.21-.6,.43-.87,.68-.27,.25-.5,.46-.68,.62-.39,.32-.9,.76-1.54,1.32-.64,.56-1.25,1.1-1.85,1.62v-5.88h22.26v1.13c-.8-.07-1.58-.03-2.36,.12-.77,.15-1.49,.39-2.15,.73-.66,.34-1.26,.77-1.79,1.28-.54,.51-.97,1.08-1.32,1.69-.39,.73-.63,1.51-.72,2.34-.09,.83-.03,1.65,.19,2.46,.22,.81,.59,1.57,1.11,2.29,.52,.72,1.21,1.34,2.05,1.86,1.03,.62,2.1,.98,3.21,1.09,1.12,.11,2.19,.04,3.23-.22,1.04-.26,1.98-.69,2.82-1.3,.84-.6,1.49-1.34,1.95-2.2,.41-.77,.64-1.62,.7-2.53,.06-.91-.06-1.8-.36-2.67-.3-.87-.76-1.66-1.38-2.39-.63-.73-1.43-1.32-2.41-1.78v-1.91h16.37v1.57c-.96-.39-1.81-.5-2.55-.32-.74,.17-1.31,.51-1.71,1.01-.4,.5-.57,1.11-.51,1.83,.06,.72,.42,1.44,1.08,2.17,.46,.5,.93,.91,1.44,1.23,.5,.32,.99,.59,1.47,.82,.48,.23,.93,.43,1.35,.6,.42,.17,.78,.34,1.08,.5,.84,.5,1.34,.97,1.5,1.4,.16,.43,.09,.82-.22,1.16-.31,.34-.79,.62-1.44,.82-.65,.21-1.36,.33-2.12,.38-.76,.05-1.52,0-2.26-.15-.74-.15-1.35-.4-1.83-.77-.48-.36-.78-.79-.91-1.26-.13-.48-.1-.91,.09-1.3,.18-.39,.52-.69,1.03-.91,.5-.22,1.13-.24,1.88-.09-.34-.36-.8-.68-1.38-.96-.58-.27-1.18-.45-1.79-.53-.62-.08-1.18-.04-1.69,.12-.51,.16-.87,.48-1.08,.96-.36,.89-.46,1.7-.27,2.44,.18,.74,.56,1.41,1.13,2,.57,.59,1.29,1.09,2.15,1.5,.87,.41,1.79,.72,2.77,.92,.98,.21,1.98,.3,2.99,.27,1.01-.02,1.95-.17,2.82-.44,.87-.27,1.62-.68,2.26-1.21,.64-.54,1.07-1.22,1.3-2.07,.11-.46,.07-.85-.12-1.2-.19-.34-.49-.65-.89-.94-.4-.28-.87-.55-1.4-.79-.54-.24-1.08-.48-1.64-.72-.56-.24-1.1-.47-1.62-.7-.52-.23-.97-.49-1.33-.79-.46-.34-.84-.77-1.16-1.28-.32-.51-.42-.96-.29-1.35,.12-.39,.54-.63,1.25-.74,.71-.1,1.85,.1,3.42,.6v-3.79h7.7v12.03l3.08,2.97v-7.59l2.56-1.91c.66-.5,1.24-.87,1.73-1.11,.49-.24,.93-.39,1.32-.44,.39-.06,.74-.04,1.04,.05,.31,.09,.62,.23,.94,.41,.46,.25,.77,.62,.94,1.11,.17,.49,.23,1.05,.19,1.69-.05,.64-.2,1.33-.46,2.09-.26,.75-.6,1.53-1.01,2.32-.43,.82-.61,1.46-.53,1.91,.08,.46,.24,.8,.5,1.03,.3,.25,.71,.4,1.23,.44,.73-1.44,1.34-2.62,1.85-3.56,.5-.93,.89-1.74,1.16-2.43,.27-.68,.44-1.32,.5-1.9,.06-.58,0-1.25-.15-2-.14-.59-.38-1.13-.73-1.62-.35-.49-.77-.92-1.25-1.28-.48-.36-1-.64-1.56-.84-.56-.19-1.11-.29-1.66-.29-.71,0-1.42,.15-2.15,.46-.73,.31-1.4,.66-2.02,1.06-.62,.4-1.15,.78-1.59,1.15-.44,.36-.72,.59-.84,.68v-4.44h14.53l-1.71-3.01h-12.82c-.02-.96-.11-1.78-.26-2.48-.15-.7-.4-1.37-.77-2.03-.32-.52-.66-.95-1.03-1.26-.36-.32-.71-.58-1.03-.79-.39-.23-.75-.41-1.09-.55l-.24,.48c.05,.09,.11,.18,.21,.27,.07,.09,.14,.19,.22,.31,.08,.11,.17,.26,.26,.44,.16,.36,.28,.85,.38,1.47,.09,.62,.16,1.23,.21,1.85,.05,.73,.07,1.49,.07,2.29h-51.87c-.02-.96-.11-1.78-.26-2.48-.15-.7-.4-1.37-.77-2.03-.32-.52-.66-.95-1.03-1.26-.36-.32-.71-.58-1.03-.79-.39-.23-.75-.41-1.09-.55l-.24,.48c.05,.09,.11,.18,.21,.27,.07,.09,.14,.19,.22,.31,.08,.11,.16,.26,.26,.44,.16,.36,.28,.85,.38,1.47,.09,.62,.16,1.23,.21,1.85,.05,.73,.07,1.49,.07,2.29h-33.86c-.02-.96-.11-1.78-.26-2.48-.15-.7-.4-1.37-.77-2.03-.32-.52-.66-.95-1.03-1.26-.36-.32-.71-.58-1.03-.79-.39-.23-.75-.41-1.09-.55l-.24,.48c.05,.09,.11,.18,.21,.27,.07,.09,.14,.19,.22,.31,.08,.11,.17,.26,.26,.44,.16,.36,.28,.85,.38,1.47,.09,.62,.16,1.23,.21,1.85,.05,.73,.07,1.49,.07,2.29h-31.98c-.02-.96-.11-1.78-.26-2.48-.15-.7-.4-1.37-.77-2.03-.32-.52-.66-.95-1.03-1.26-.36-.32-.71-.58-1.03-.79-.39-.23-.75-.41-1.09-.55l-.24,.48c.05,.09,.11,.18,.21,.27,.07,.09,.14,.19,.22,.31,.08,.11,.17,.26,.26,.44,.16,.36,.28,.85,.38,1.47,.09,.62,.16,1.23,.21,1.85,.05,.73,.07,1.49,.07,2.29h-24.32c-.02-.96-.11-1.78-.26-2.48-.15-.7-.4-1.37-.77-2.03-.32-.52-.66-.95-1.03-1.26-.36-.32-.71-.58-1.03-.79-.39-.23-.75-.41-1.09-.55l-.24,.48c.05,.09,.11,.18,.21,.27,.07,.09,.14,.19,.22,.31,.08,.11,.17,.26,.26,.44,.16,.36,.28,.85,.38,1.47,.09,.62,.16,1.23,.21,1.85,.05,.73,.07,1.49,.07,2.29h-21.65Zm7.42,15.81c-.5-.24-.92-.54-1.26-.91-.34-.36-.56-.77-.65-1.21-.09-.44,.02-.87,.34-1.28,.39,.16,.73,.38,1.03,.65,.3,.27,.56,.58,.79,.92,.23,.34,.43,.7,.62,1.08,.18,.38,.38,.73,.58,1.08-.46,.02-.93-.09-1.44-.32Zm106.7-1.83c-.36,.32-.86,.63-1.49,.92-.63,.3-1.3,.55-2.02,.75-.72,.21-1.44,.33-2.15,.38-.72,.05-1.34-.02-1.88-.21-.54-.18-.94-.5-1.21-.96-.27-.46-.32-1.08-.14-1.88,.16-.73,.55-1.28,1.16-1.66,.62-.38,1.34-.58,2.19-.6,.84-.02,1.75,.13,2.73,.46,.98,.33,1.91,.84,2.8,1.52v1.26Zm35.24-7.11c.68,.5,1.12,1.16,1.32,1.97,.19,.81,.2,1.64,.02,2.5-.18,.85-.53,1.68-1.04,2.48-.51,.8-1.14,1.44-1.88,1.93-.74,.49-1.56,.76-2.46,.8-.9,.05-1.84-.24-2.82-.85-.89-.55-1.45-1.24-1.69-2.07-.24-.83-.25-1.68-.02-2.53,.23-.85,.65-1.67,1.26-2.46,.62-.79,1.33-1.41,2.14-1.88,.81-.47,1.67-.72,2.58-.75,.91-.03,1.78,.26,2.6,.87Z"/></g><path class="d" d="M1.66,49.92V24.86l5.89-3.3,22.81,12.91-.03,26.73-3.17-1.79-1.93,1.1-.02,2.7L1.66,49.92Zm21.91,7.47l-.05-17.81L3.4,28.24v17.77l20.17,11.38Zm-12.52-5.54c-.51-.19-.97,0-1.02,.42-.05,.42,.33,.93,.85,1.12,.51,.19,.97,0,1.02-.42,.05-.43-.33-.93-.85-1.12h0Zm14.18-13.59v22.25l3.43-1.97v-23.23L7.68,23.44l-4.33,2.45,21.88,12.37Z"/><path class="d" d="M57.38,20.72l-24.4,13.79,.02,25.96,2.47-1.39,2.66,1.5-3.46-1.95v-23.27l22.74-12.85,4.35,2.46-23.63,13.35v24.97l25.19-14.23V24.07l-5.94-3.36Zm-1.98,27.09l-9.46,5.34v-1.64l9.46-5.36v1.66Zm0-4.53l-9.46,5.34v-1.64l9.46-5.36v1.66Zm0-4.53l-9.46,5.34v-1.64l9.46-5.36v1.66Z"/><g><path class="c" d="M52.95,18.17l-1.74-.94v2.02l-19.03,10.71L11.76,18.52v-4.1l20.42,11.5,19.04-10.69,2.47-1.4L32.21,1.72,10.02,13.48v6.67l22.16,12.51,23.22-13.08-2.44-1.41Zm-19.93-9.27l2.01,6.31-9.36-1.9,7.34-4.41Z"/><polygon class="c" points="51.21 17.24 51.22 15.23 51.21 17.24 51.21 17.24"/></g></g></svg>