<?xml version="1.0" encoding="utf-8"?>
<!-- Generator: Adobe Illustrator 26.2.1, SVG Export Plug-In . SVG Version: 6.00 Build 0)  -->
<svg version="1.1" id="Layer_1" xmlns="http://www.w3.org/2000/svg" xmlns:xlink="http://www.w3.org/1999/xlink" x="0px" y="0px"
	 viewBox="0 0 1366 176" style="enable-background:new 0 0 1366 176;" xml:space="preserve">
<style type="text/css">
	.st0{fill:#63409A;}
</style>
<g>
	<path class="st0" d="M41.9,135.6c3.9,2.6,7.7,4.2,11.5,4.8c3.7,0.6,7.2,0.5,10.5-0.5c3.3-0.9,6.3-2.5,9.2-4.7
		c2.8-2.2,5.2-4.8,7.1-7.9l10.6,9.7c-3.2,3.3-6.9,6-11.3,8.2c-4.3,2.2-8.9,3.7-13.8,4.5c-4.9,0.8-9.9,0.8-15,0s-10-2.6-14.7-5.4
		c-4.5-2.8-8.2-6.2-11.1-10.1c-2.9-3.9-4.9-8-6-12.4c-1.2-4.3-1.5-8.8-1.1-13.3c0.4-4.5,1.7-8.7,3.8-12.6c1.8-3.3,4.3-6.2,7.4-8.8
		c3.1-2.6,6.6-4.6,10.4-6.2c3.8-1.6,7.7-2.6,11.8-3.1c4.1-0.5,8-0.4,11.6,0.4v-8.8H11.2L2,53.3h94.2l9.2,16.1H77.7v13
		c4.5,3.5,7.4,7.1,8.8,10.5c1.3,3.5,1.6,6.8,0.9,10c-0.7,3.2-2.3,6.1-4.8,8.8c-2.4,2.7-5.2,4.9-8.2,6.6c-2.2,1.2-5.4,2.7-9.6,4.3
		c-4.2,1.6-8.5,2.9-12.7,3.8c-4.3,0.9-8.1,1-11.4,0.4c-3.3-0.6-5.1-2.6-5.3-5.9c4.4-1.5,8.1-2.6,11.1-3.5c3-0.9,5.7-1.7,8.1-2.7
		c2.4-0.9,4.6-2,6.7-3.2c2.1-1.2,4.5-2.9,7.3-5.1c1.7-1.5,2.8-3,3.3-4.6c0.5-1.6,0.4-3.1-0.3-4.5c-0.7-1.4-1.8-2.6-3.4-3.5
		c-1.6-0.9-3.7-1.4-6.2-1.6c-6.8-0.5-12.8,0.8-18,3.8c-5.1,3.1-8.8,6.9-11.1,11.5c-2.3,4.6-2.8,9.5-1.6,14.7
		C32.5,127.6,36.1,132,41.9,135.6z"/>
	<path class="st0" d="M117.8,109.6l9.2-16.1h49.8l-9.2,16.1H117.8z"/>
	<path class="st0" d="M255.8,104.7c2,1.6,4.3,3,7.1,4.2c2.8,1.2,5.7,2.5,8.7,3.8c3,1.3,5.9,2.6,8.8,3.8c2.9,1.3,5.4,2.7,7.5,4.2
		c2.1,1.5,3.7,3.2,4.8,5c1,1.8,1.3,4,0.6,6.4c-1.3,5.1-4,9.2-8.1,12.1c-4,2.9-8.8,5.1-14.3,6.4c1.5,1.1,2.9,2,4.2,2.7
		c1.3,0.7,3.2,1.6,5.7,2.7l-9.7,10.6c-3.5-1.7-6.8-3.8-9.7-6.3c-2.9-2.5-5.6-5.3-7.9-8.5c-6.2-0.4-12.3-1.5-18.3-3.5
		c-6-2-11.1-4.6-15.3-7.9c-4.2-3.3-7.1-7.2-8.8-11.7c-1.6-4.5-1.3-9.5,1-15c0.9-2.2,2.3-3.9,4.2-5.1c2-1.2,4.1-2,6.4-2.4
		c2.3-0.4,4.7-0.4,7.1,0c2.4,0.4,4.6,0.9,6.6,1.6c3.2,1.3,5.8,3.3,7.8,6c2,2.6,3.8,5.5,5.4,8.5c1.6,3.1,3.1,6.1,4.7,9.2
		c1.5,3.1,3.4,5.7,5.6,7.9c3.4-0.5,6.4-1.3,9.1-2.6c2.6-1.2,4.5-2.7,5.5-4.5c1-1.8,1-3.7,0-5.8c-1-2.1-3.6-4.3-7.6-6.8
		c-1.6-0.9-3.5-1.7-5.8-2.7c-2.3-0.9-4.7-2-7.2-3.2c-2.6-1.2-5.2-2.7-7.9-4.4c-2.7-1.7-5.3-3.9-7.7-6.6c-3.5-3.9-5.5-7.8-5.8-11.6
		c-0.3-3.8,0.6-7.1,2.7-9.8c2.1-2.7,5.2-4.5,9.2-5.4c4-0.9,8.5-0.3,13.7,1.7v-8.4h-50.9l-9.2-16.1h101.1l9.2,16.1H273v20.3
		c-8.4-2.7-14.5-3.8-18.3-3.2c-3.8,0.5-6,1.9-6.7,3.9c-0.7,2.1-0.2,4.5,1.6,7.2C251.2,100.5,253.3,102.8,255.8,104.7z M229.4,119.9
		c-1.7,2.2-2.3,4.5-1.8,6.9c0.5,2.4,1.6,4.6,3.5,6.5c1.8,2,4.1,3.6,6.8,4.9c2.7,1.3,5.3,1.9,7.7,1.7c-1.1-1.8-2.1-3.8-3.1-5.8
		c-1-2-2.1-3.9-3.3-5.8c-1.2-1.8-2.6-3.5-4.2-4.9C233.3,121.9,231.5,120.7,229.4,119.9z"/>
	<path class="st0" d="M379.6,75.3c2.9,0,5.9,0.5,8.9,1.6c3,1,5.8,2.5,8.3,4.5c2.6,2,4.8,4.2,6.7,6.9c1.9,2.6,3.2,5.5,3.9,8.7
		c0.9,4,1.1,7.6,0.8,10.7c-0.3,3.1-1.2,6.5-2.7,10.2c-1.5,3.7-3.5,8-6.2,13c-2.7,5-6,11.4-9.9,19.1c-2.8-0.2-5-1-6.6-2.4
		c-1.3-1.2-2.2-3.1-2.7-5.5c-0.4-2.4,0.5-5.9,2.8-10.3c2.2-4.3,4-8.4,5.4-12.5c1.4-4,2.2-7.8,2.5-11.2c0.2-3.4-0.1-6.4-1-9.1
		c-0.9-2.6-2.6-4.6-5-6c-1.7-1-3.4-1.7-5-2.2c-1.6-0.5-3.5-0.6-5.6-0.3c-2.1,0.3-4.4,1.1-7.1,2.4c-2.6,1.3-5.7,3.3-9.3,6l-13.7,10.3
		v40.7L327.8,134V69.5H321l-9.2-16.1h15.9c0-4.3-0.1-8.4-0.4-12.3c-0.2-3.3-0.6-6.6-1.1-9.9c-0.5-3.3-1.2-5.9-2-7.9
		c-0.5-1-0.9-1.8-1.4-2.4c-0.4-0.6-0.8-1.2-1.2-1.6c-0.5-0.5-0.9-1-1.1-1.5l1.3-2.6c1.8,0.7,3.8,1.7,5.9,2.9
		c1.7,1.1,3.5,2.5,5.5,4.2c2,1.7,3.8,4,5.5,6.8c2,3.5,3.3,7.2,4.1,10.9c0.8,3.7,1.3,8.2,1.4,13.3H413l9.2,16.1h-77.9v23.8
		c0.6-0.5,2.1-1.7,4.5-3.7c2.4-2,5.2-4,8.5-6.1c3.3-2.1,6.9-4,10.8-5.7C372,76.2,375.8,75.3,379.6,75.3z"/>
	<path class="st0" d="M483.7,69.5H461v80.4L444.5,134V69.5h-9.2l0.2-0.4l-8.8-15.8h47.6L483.7,69.5z M453.1,38.5l-11.5-11.7
		l11.5-11.5l11.7,11.5L453.1,38.5z"/>
	<path class="st0" d="M545.3,96.6c-2.2,0.6-5.1,1.9-8.7,3.9c-3.6,2-7.2,4.2-10.9,6.7l47.3,42.7l-11,12.3l-43.1-39.6v27.3L502.4,134
		V69.5h-6.8l-9.2-16.1h15.9c0-4.3-0.1-8.4-0.4-12.3c-0.2-3.3-0.6-6.6-1.1-9.9c-0.5-3.3-1.2-5.9-2-7.9c-0.5-1-0.9-1.8-1.4-2.4
		c-0.4-0.6-0.8-1.2-1.2-1.6c-0.5-0.5-0.9-1-1.1-1.5l1.3-2.6c1.8,0.7,3.8,1.7,5.9,2.9c1.7,1.1,3.5,2.5,5.5,4.2c2,1.7,3.8,4,5.5,6.8
		c2,3.5,3.3,7.2,4.1,10.9c0.8,3.7,1.3,8.2,1.4,13.3h61.4l9.2,16.1h-70.5v23.8v7.7c3.2-2.8,6.5-5.7,9.9-8.7c3.4-3,6.2-5.3,8.2-7.1
		c1-0.9,2.2-2,3.7-3.3c1.5-1.3,3-2.6,4.7-3.7c1.6-1.1,3.3-2,4.9-2.7c1.6-0.7,2.9-0.8,4-0.3c1.5,0.6,3,1.7,4.5,3.2
		c1.5,1.5,3.1,3.3,4.6,5.2c1.5,2,2.9,4,4.2,6c1.3,2.1,2.4,4,3.4,5.7l-12.1,13c-0.7-1.2-1.6-2.6-2.7-4.1c-1.1-1.5-2.3-2.9-3.5-4.1
		c-1.2-1.2-2.5-2.2-3.8-2.9C547.5,96.6,546.4,96.3,545.3,96.6z"/>
	<path class="st0" d="M645.7,104.7c2,1.6,4.3,3,7.1,4.2c2.8,1.2,5.7,2.5,8.7,3.8c3,1.3,5.9,2.6,8.8,3.8c2.9,1.3,5.4,2.7,7.5,4.2
		c2.1,1.5,3.7,3.2,4.8,5c1,1.8,1.3,4,0.6,6.4c-1.2,4.5-3.5,8.2-7,11.1c-3.4,2.9-7.5,5-12.1,6.5c-4.6,1.5-9.7,2.3-15.1,2.4
		c-5.4,0.1-10.8-0.4-16-1.5c-5.3-1.1-10.2-2.7-14.8-4.9c-4.6-2.2-8.5-4.9-11.5-8.1c-3.1-3.2-5.1-6.7-6-10.7c-1-4-0.5-8.3,1.5-13.1
		c1.1-2.6,3-4.3,5.8-5.1c2.7-0.9,5.8-1.1,9.1-0.6c3.3,0.4,6.5,1.4,9.6,2.8c3.1,1.5,5.6,3.2,7.4,5.1c-4-0.9-7.4-0.7-10.1,0.5
		c-2.7,1.2-4.5,2.8-5.5,4.9c-1,2.1-1.1,4.4-0.5,7c0.7,2.6,2.3,4.8,4.9,6.8c2.6,2,5.8,3.3,9.8,4.1c4,0.8,8,1.1,12.1,0.8
		c4.1-0.2,7.9-0.9,11.4-2c3.5-1.1,6-2.6,7.7-4.4c1.6-1.8,2-3.9,1.2-6.2c-0.9-2.3-3.5-4.8-8.1-7.5c-1.6-0.9-3.5-1.7-5.8-2.7
		c-2.3-0.9-4.7-2-7.2-3.2c-2.6-1.2-5.2-2.7-7.9-4.4c-2.7-1.7-5.3-3.9-7.7-6.6c-3.5-3.9-5.5-7.8-5.8-11.6c-0.3-3.8,0.6-7.1,2.7-9.8
		c2.1-2.7,5.2-4.5,9.2-5.4c4-0.9,8.5-0.3,13.7,1.7v-8.4h-50.9l-9.2-16.1h101.1l9.2,16.1h-35.4v20.3c-8.4-2.7-14.5-3.8-18.3-3.2
		c-3.8,0.5-6,1.9-6.7,3.9c-0.7,2.1-0.2,4.5,1.6,7.2C641.1,100.5,643.2,102.8,645.7,104.7z"/>
	<path class="st0" d="M769.9,75.3c2.9,0,5.9,0.5,8.9,1.6c3,1,5.8,2.5,8.3,4.5c2.6,2,4.8,4.2,6.7,6.9c1.9,2.6,3.2,5.5,3.9,8.7
		c0.9,4,1.1,7.6,0.8,10.7c-0.3,3.1-1.2,6.5-2.7,10.2c-1.5,3.7-3.5,8-6.2,13c-2.7,5-6,11.4-9.9,19.1c-2.8-0.2-5-1-6.6-2.4
		c-1.3-1.2-2.2-3.1-2.7-5.5c-0.4-2.4,0.5-5.9,2.8-10.3c2.2-4.3,4-8.4,5.4-12.5c1.4-4,2.2-7.8,2.5-11.2c0.2-3.4-0.1-6.4-1-9.1
		c-0.9-2.6-2.6-4.6-5-6c-1.7-1-3.4-1.7-5-2.2c-1.6-0.5-3.5-0.6-5.6-0.3c-2.1,0.3-4.4,1.1-7.1,2.4c-2.6,1.3-5.7,3.3-9.3,6l-13.7,10.3
		v40.7L718,134V69.5h-6.8l-9.2-16.1H718c0-4.3-0.1-8.4-0.4-12.3c-0.2-3.3-0.6-6.6-1.1-9.9c-0.5-3.3-1.2-5.9-2-7.9
		c-0.5-1-0.9-1.8-1.4-2.4c-0.4-0.6-0.8-1.2-1.2-1.6c-0.5-0.5-0.9-1-1.1-1.5l1.3-2.6c1.8,0.7,3.8,1.7,5.9,2.9
		c1.7,1.1,3.5,2.5,5.5,4.2c2,1.7,3.8,4,5.5,6.8c2,3.5,3.3,7.2,4.1,10.9c0.8,3.7,1.3,8.2,1.4,13.3h68.7l9.2,16.1h-77.9v23.8
		c0.6-0.5,2.1-1.7,4.5-3.7c2.4-2,5.2-4,8.5-6.1c3.3-2.1,6.9-4,10.8-5.7C762.3,76.2,766.1,75.3,769.9,75.3z"/>
	<path class="st0" d="M885,75.9c2.9,0.9,5.7,2,8.4,3.4c2.7,1.4,5,3,7.1,4.8c2,1.8,3.6,3.7,4.8,5.8c1.2,2.1,1.7,4.2,1.7,6.2v54.1
		l-14.7-11.4c-2.2,2.2-5.1,4.2-8.6,6c-3.5,1.8-7.4,3.3-11.5,4.3c-4.2,1-8.5,1.6-12.9,1.7c-4.5,0.1-8.7-0.4-12.7-1.5
		c-4-1.1-7.7-2.9-11-5.3c-3.3-2.4-5.9-5.7-7.7-9.7c-2.1-4.3-2.7-8.5-1.9-12.8c0.8-4.3,2.6-8.2,5.3-11.6c2.7-3.5,6.3-6.3,10.8-8.6
		c4.5-2.3,9.3-3.5,14.7-3.8c5.3-0.3,10.9,0.5,16.7,2.6c5.8,2,11.5,5.5,17.1,10.5V96.2c0-3.5-1.9-6.3-5.8-8.2
		c-3.8-1.9-8.5-2.4-14-1.4c-3.9,0.6-7,1.2-9.3,1.6c-2.3,0.5-4.5,1.1-6.6,1.7c-2.1,0.7-4.3,1.5-6.8,2.5c-2.4,1-5.7,2.3-9.9,3.8
		l-4-9.2c4.2-1.7,8.2-3.4,12.3-4.9c3.5-1.3,7.3-2.7,11.3-4c4-1.3,7.6-2.4,10.9-3.1c0.2-0.1,0.5-0.2,0.8-0.2c0.3,0,0.6-0.1,0.8-0.2
		v-5.3h-46.2l-9.2-16.1h101.1l9.2,16.1H885V75.9z M890.5,121.5c-4.8-3.7-9.8-6.4-15-8.2c-5.3-1.8-10.1-2.6-14.7-2.5
		c-4.5,0.1-8.4,1.2-11.7,3.2c-3.3,2-5.4,5-6.2,8.9c-1,4.3-0.7,7.6,0.7,10.1c1.5,2.4,3.6,4.2,6.5,5.1c2.9,1,6.2,1.3,10.1,1.1
		c3.8-0.2,7.7-0.9,11.5-2c3.8-1.1,7.4-2.4,10.8-4c3.4-1.6,6-3.2,8-4.9V121.5z"/>
	<path class="st0" d="M986.6,96.6c-2.2,0.6-5.1,1.9-8.7,3.9c-3.6,2-7.2,4.2-10.9,6.7l47.3,42.7l-11,12.3l-43.1-39.6v27.3L943.8,134
		V69.5H937l-9.2-16.1h15.9c0-4.3-0.1-8.4-0.4-12.3c-0.2-3.3-0.6-6.6-1.1-9.9c-0.5-3.3-1.2-5.9-2-7.9c-0.5-1-0.9-1.8-1.4-2.4
		c-0.4-0.6-0.8-1.2-1.2-1.6c-0.5-0.5-0.9-1-1.1-1.5l1.3-2.6c1.8,0.7,3.8,1.7,5.9,2.9c1.7,1.1,3.5,2.5,5.5,4.2c2,1.7,3.8,4,5.5,6.8
		c2,3.5,3.3,7.2,4.1,10.9c0.8,3.7,1.3,8.2,1.4,13.3h61.4l9.2,16.1h-70.5v23.8v7.7c3.2-2.8,6.5-5.7,9.9-8.7c3.4-3,6.2-5.3,8.2-7.1
		c1-0.9,2.2-2,3.7-3.3c1.5-1.3,3-2.6,4.7-3.7c1.6-1.1,3.3-2,4.9-2.7c1.6-0.7,2.9-0.8,4-0.3c1.5,0.6,3,1.7,4.5,3.2
		c1.5,1.5,3.1,3.3,4.6,5.2c1.5,2,2.9,4,4.2,6c1.3,2.1,2.4,4,3.4,5.7l-12.1,13c-0.7-1.2-1.6-2.6-2.7-4.1c-1.1-1.5-2.3-2.9-3.5-4.1
		c-1.2-1.2-2.5-2.2-3.8-2.9C988.9,96.6,987.7,96.3,986.6,96.6z"/>
	<path class="st0" d="M1101.3,79.7c5.3,2.4,9.6,5.6,12.9,9.5c3.4,3.9,5.8,8.2,7.4,12.8c1.6,4.6,2.2,9.4,1.9,14.3
		c-0.3,4.9-1.6,9.4-3.8,13.6c-2.4,4.6-5.9,8.6-10.4,11.8c-4.5,3.2-9.6,5.6-15.1,7c-5.6,1.4-11.3,1.8-17.3,1.2
		c-6-0.6-11.7-2.6-17.2-5.9c-4.5-2.8-8.2-6.1-11-10c-2.8-3.8-4.8-7.9-6-12.3c-1.2-4.3-1.5-8.7-1-13.2c0.5-4.5,1.8-8.6,3.8-12.6
		c1.8-3.3,4.2-6.3,7.1-9.1c2.9-2.7,6.1-5,9.6-6.9c3.5-1.8,7.4-3.1,11.5-3.9c4.2-0.8,8.4-1,12.6-0.6v-6h-51.7l-9.2-16.1h105.2
		l9.2,16.1h-38.7V79.7z M1065.6,137.4c5.3,3.3,10.3,4.8,15.1,4.6c4.8-0.2,9.2-1.7,13.2-4.3c4-2.6,7.3-6.1,10.1-10.4
		c2.7-4.3,4.6-8.7,5.6-13.3c1-4.6,0.9-9-0.1-13.4c-1-4.3-3.4-7.8-7.1-10.5c-4.4-3.3-9-4.9-13.9-4.7c-4.9,0.2-9.5,1.5-13.8,4
		c-4.3,2.5-8.2,5.9-11.5,10.1c-3.3,4.2-5.6,8.6-6.8,13.2c-1.2,4.6-1.2,9.1,0.1,13.6C1057.8,130.8,1060.8,134.5,1065.6,137.4z"/>
	<path class="st0" d="M1198.3,104.7c2,1.6,4.3,3,7.1,4.2c2.8,1.2,5.7,2.5,8.7,3.8c3,1.3,5.9,2.6,8.8,3.8c2.9,1.3,5.4,2.7,7.5,4.2
		c2.1,1.5,3.7,3.2,4.8,5c1,1.8,1.3,4,0.6,6.4c-1.2,4.5-3.5,8.2-7,11.1c-3.4,2.9-7.5,5-12.1,6.5c-4.6,1.5-9.7,2.3-15.1,2.4
		c-5.4,0.1-10.8-0.4-16-1.5c-5.3-1.1-10.2-2.7-14.8-4.9c-4.6-2.2-8.5-4.9-11.5-8.1c-3.1-3.2-5.1-6.7-6-10.7c-1-4-0.5-8.3,1.5-13.1
		c1.1-2.6,3-4.3,5.8-5.1c2.7-0.9,5.8-1.1,9.1-0.6c3.3,0.4,6.5,1.4,9.6,2.8c3.1,1.5,5.6,3.2,7.4,5.1c-4-0.9-7.4-0.7-10.1,0.5
		c-2.7,1.2-4.5,2.8-5.5,4.9c-1,2.1-1.1,4.4-0.5,7c0.7,2.6,2.3,4.8,4.9,6.8c2.6,2,5.8,3.3,9.8,4.1c4,0.8,8,1.1,12.1,0.8
		c4.1-0.2,7.9-0.9,11.4-2c3.5-1.1,6-2.6,7.7-4.4c1.6-1.8,2-3.9,1.2-6.2c-0.9-2.3-3.5-4.8-8.1-7.5c-1.6-0.9-3.5-1.7-5.8-2.7
		c-2.3-0.9-4.7-2-7.2-3.2c-2.6-1.2-5.2-2.7-7.9-4.4c-2.7-1.7-5.3-3.9-7.7-6.6c-3.5-3.9-5.5-7.8-5.8-11.6c-0.3-3.8,0.6-7.1,2.7-9.8
		c2.1-2.7,5.2-4.5,9.2-5.4c4-0.9,8.5-0.3,13.7,1.7v-8.4h-50.9l-9.2-16.1h101.1l9.2,16.1h-35.4v20.3c-8.4-2.7-14.5-3.8-18.3-3.2
		c-3.8,0.5-6,1.9-6.7,3.9c-0.7,2.1-0.2,4.5,1.6,7.2C1193.7,100.5,1195.8,102.8,1198.3,104.7z"/>
	<path class="st0" d="M1322.5,75.3c2.9,0,5.9,0.5,8.9,1.6c3,1,5.8,2.5,8.3,4.5c2.6,2,4.8,4.2,6.7,6.9c1.9,2.6,3.2,5.5,3.9,8.7
		c0.9,4,1.1,7.6,0.8,10.7c-0.3,3.1-1.2,6.5-2.7,10.2c-1.5,3.7-3.5,8-6.2,13c-2.7,5-6,11.4-9.9,19.1c-2.8-0.2-5-1-6.6-2.4
		c-1.3-1.2-2.2-3.1-2.7-5.5c-0.4-2.4,0.5-5.9,2.8-10.3c2.2-4.3,4-8.4,5.4-12.5c1.4-4,2.2-7.8,2.5-11.2c0.2-3.4-0.1-6.4-1-9.1
		c-0.9-2.6-2.6-4.6-5-6c-1.7-1-3.4-1.7-5-2.2c-1.6-0.5-3.5-0.6-5.6-0.3c-2.1,0.3-4.4,1.1-7.1,2.4c-2.6,1.3-5.7,3.3-9.3,6l-13.7,10.3
		v40.7l-16.5-15.9V69.5h-6.8l-9.2-16.1h15.9c0-4.3-0.1-8.4-0.4-12.3c-0.2-3.3-0.6-6.6-1.1-9.9c-0.5-3.3-1.2-5.9-2-7.9
		c-0.5-1-0.9-1.8-1.4-2.4c-0.4-0.6-0.8-1.2-1.2-1.6c-0.5-0.5-0.9-1-1.1-1.5l1.3-2.6c1.8,0.7,3.8,1.7,5.9,2.9
		c1.7,1.1,3.5,2.5,5.5,4.2c2,1.7,3.8,4,5.5,6.8c2,3.5,3.3,7.2,4.1,10.9c0.8,3.7,1.3,8.2,1.4,13.3h68.7l9.2,16.1h-77.9v23.8
		c0.6-0.5,2.1-1.7,4.5-3.7c2.4-2,5.2-4,8.5-6.1c3.3-2.1,6.9-4,10.8-5.7C1314.9,76.2,1318.7,75.3,1322.5,75.3z"/>
</g>
</svg>
